# xmcd
#
# Track frame offsets:
#	150
#	15140
#	31697
#	45897
#	61517
#	74475
#	89727
#	109480
#	128520
#	144607
#	160565
#	184165
#	200882
#	212782
#	226195
#
# Disc length: 3304 seconds
#
# Revision: 0
# Processed by: cddbd v1.5.2PL0 Copyright (c) Steve Scherf et al.
# Submitted via: audiograbber 1.83.01
#
DISCID=c30ce60f
DTITLE=Various Artist - MM6125
DYEAR=1900
DGENRE=Country
TTITLE0=George Strait - Check Yes Or No
TTITLE1=Alabama - In Pictures
TTITLE2=John Michael Montgomery - No Man's Land
TTITLE3=Pam Tillis - Deep Down
TTITLE4=Little Texas - Life Goes On
TTITLE5=Doug Suernaw - Not Enough Hours In The Night
TTITLE6=Reba McEntire - For Herself
TTITLE7=Dwight Yoakam - Nothing
TTITLE8=The Mavericks - Here Comes The Rain
TTITLE9=Faith Hill - It Matters To Me
TTITLE10=Ty Herndon and S. Bentley - Heart Half Empty
TTITLE11=Mark Chesnutt - Trouble
TTITLE12=Doug Stone - Born In The Dark
TTITLE13=Brooks and Dunn - Whiskey Under The Bridge
TTITLE14=Vince Gill - Go Rest High On That Mountain
EXTD=
EXTT0=
EXTT1=
EXTT2=
EXTT3=
EXTT4=
EXTT5=
EXTT6=
EXTT7=
EXTT8=
EXTT9=
EXTT10=
EXTT11=
EXTT12=
EXTT13=
EXTT14=
PLAYORDER=
